<svg width="282" height="49" viewBox="0 0 282 49" fill="none" xmlns="http://www.w3.org/2000/svg">
<path d="M27.1874 13.3722C24.978 11.5377 22.2163 10.3147 19.2705 10.3147C17.0612 10.3147 14.1767 11.5989 14.1767 14.1671C14.1767 16.8577 17.4294 17.8972 19.4546 18.5087L22.5232 19.426C28.9058 21.3216 33.8768 24.5014 33.8768 31.9004C33.8768 36.4255 32.7721 41.1339 29.1513 44.1914C25.5304 47.2489 20.7434 48.4719 16.1406 48.4719C10.3717 48.4719 4.6642 46.5151 0 43.2742L4.97106 33.796C7.97824 36.4255 11.4764 38.5045 15.5882 38.5045C18.4113 38.5045 21.3571 37.0981 21.3571 33.9183C21.3571 30.5551 16.6929 29.4544 14.1153 28.7207C6.62807 26.5193 1.71839 24.6237 1.71839 15.757C1.71839 6.46235 8.34646 0.408569 17.5521 0.408569C22.155 0.408569 27.8625 1.87616 31.913 4.19983L27.1874 13.3722Z" fill="white"/>
<path d="M56.2158 11.6602V19.3038H69.6561V29.3934H56.2158V37.2817H70.4539V47.3713H44.3098V1.63168H70.4539V11.7213L56.2158 11.6602Z" fill="white"/>
<path d="M79.2914 1.63168H96.2298C108.995 1.63168 119.551 11.6602 119.551 24.5015C119.551 37.3428 108.934 47.3713 96.2298 47.3713H79.2914V1.63168ZM91.2587 37.2817H93.9591C101.078 37.2817 107.154 33.3681 107.154 24.5015C107.154 16.3075 101.753 11.7213 94.0818 11.7213H91.2587V37.2817Z" fill="white"/>
<path d="M175.951 23.6452C175.951 38.4433 165.272 48.8999 150.543 48.8999C135.814 48.8999 125.136 38.4433 125.136 23.6452C125.136 9.82551 137.348 0.102783 150.543 0.102783C163.738 0.102783 175.951 9.82551 175.951 23.6452ZM137.533 23.7064C137.533 31.5946 143.363 37.3427 150.482 37.3427C157.601 37.3427 163.431 31.5946 163.431 23.7064C163.431 17.408 157.601 11.5988 150.482 11.5988C143.424 11.5988 137.533 17.408 137.533 23.7064Z" fill="white"/>
<path d="M182.272 1.63168H194.239L216.087 29.638H216.21V1.63168H228.178V47.3713H216.21L194.362 19.3038H194.239V47.3713H182.272V1.63168Z" fill="white"/>
<path d="M249.842 39.4219L246.65 47.3713H234.008L251.683 1.63168H264.693L282 47.3713H269.296L266.289 39.4219H249.842ZM258.188 15.7572H258.065L253.156 30.3107H263.098L258.188 15.7572Z" fill="white"/>
</svg>
